<svg width="390" height="844" viewBox="0 0 390 844" fill="none" xmlns="http://www.w3.org/2000/svg">
  <defs>
    <linearGradient id="bg" x1="0" y1="0" x2="390" y2="844" gradientUnits="userSpaceOnUse">
      <stop stop-color="#F6FBFF"/>
      <stop offset="1" stop-color="#F2FBF5"/>
    </linearGradient>
    <linearGradient id="headerBlob" x1="20" y1="0" x2="370" y2="210" gradientUnits="userSpaceOnUse">
      <stop stop-color="#D9EEFF" stop-opacity="0.65"/>
      <stop offset="1" stop-color="#D8F7E8" stop-opacity="0.2"/>
    </linearGradient>
    <linearGradient id="primary" x1="0" y1="0" x2="180" y2="60" gradientUnits="userSpaceOnUse">
      <stop stop-color="#133D5A"/>
      <stop offset="1" stop-color="#0F6A74"/>
    </linearGradient>
    <linearGradient id="card" x1="0" y1="0" x2="340" y2="180" gradientUnits="userSpaceOnUse">
      <stop stop-color="#FFFFFF"/>
      <stop offset="1" stop-color="#F9FCFF"/>
    </linearGradient>
    <filter id="drop" x="0" y="0" width="390" height="844" filterUnits="userSpaceOnUse" color-interpolation-filters="sRGB">
      <feDropShadow dx="0" dy="10" stdDeviation="12" flood-color="#0A2B42" flood-opacity="0.08"/>
    </filter>
    <style>
      .h1 { font-family: 'Sora', 'Avenir Next', sans-serif; font-size: 24px; font-weight: 700; fill: #10212C; }
      .h2 { font-family: 'Sora', 'Avenir Next', sans-serif; font-size: 14px; font-weight: 700; fill: #1B3D4A; }
      .h3 { font-family: 'Sora', 'Avenir Next', sans-serif; font-size: 16px; font-weight: 700; fill: #143645; }
      .b1 { font-family: 'Sora', 'Avenir Next', sans-serif; font-size: 12px; font-weight: 500; fill: #5A7380; }
      .b2 { font-family: 'Sora', 'Avenir Next', sans-serif; font-size: 11px; font-weight: 700; fill: #2E5361; }
      .w { font-family: 'Sora', 'Avenir Next', sans-serif; font-size: 12px; font-weight: 700; fill: #FFFFFF; }
    </style>
  </defs>

  <rect width="390" height="844" fill="url(#bg)"/>
  <ellipse cx="195" cy="35" rx="220" ry="140" fill="url(#headerBlob)"/>

  <rect x="24" y="13" width="342" height="6" rx="3" fill="#DCE8EF"/>

  <text x="24" y="70" class="h1">LearningLanguage</text>
  <text x="24" y="92" class="b1">Shadowing workspace dashboard</text>

  <circle cx="339" cy="67" r="21" fill="#FFFFFF" stroke="#D7E4EA"/>
  <path d="M339 57V77M329 67H349" stroke="#245063" stroke-width="2.4" stroke-linecap="round"/>

  <text x="24" y="126" class="h2">Workspace</text>
  <rect x="24" y="136" width="75" height="34" rx="17" fill="#EAF1F6"/>
  <text x="44" y="158" class="b2">English</text>
  <rect x="107" y="136" width="76" height="34" rx="17" fill="#EAF1F6"/>
  <text x="128" y="158" class="b2">Spanish</text>
  <rect x="191" y="136" width="85" height="34" rx="17" fill="#0F6372"/>
  <text x="216" y="158" class="w">Japanese</text>
  <rect x="284" y="136" width="82" height="34" rx="17" fill="#EAF1F6"/>
  <text x="308" y="158" class="b2">German</text>

  <g filter="url(#drop)">
    <rect x="22" y="186" width="346" height="96" rx="22" fill="url(#card)"/>
  </g>
  <text x="40" y="218" class="h2">Today</text>
  <text x="40" y="238" class="b1">2 sessions active across 83 min planned</text>

  <rect x="40" y="248" width="90" height="20" rx="10" fill="#E4F4EA"/>
  <text x="58" y="262" class="b2" fill="#2D6A49">+11% streak</text>
  <rect x="140" y="248" width="130" height="20" rx="10" fill="#E6F0F6"/>
  <text x="157" y="262" class="b2">Sentence accuracy 78%</text>

  <text x="24" y="316" class="h2">Sessions in Japanese</text>

  <g filter="url(#drop)">
    <rect x="22" y="330" width="346" height="132" rx="22" fill="url(#card)"/>
  </g>
  <text x="40" y="362" class="h3">Cafe Conversation A1</text>
  <text x="40" y="382" class="b1">Last active 8 min ago</text>
  <rect x="40" y="398" width="286" height="10" rx="5" fill="#D9E7ED"/>
  <rect x="40" y="398" width="170" height="10" rx="5" fill="#0E6A78"/>
  <text x="333" y="406" class="b2">17/35</text>
  <rect x="40" y="418" width="88" height="28" rx="14" fill="#E7F3EA"/>
  <text x="58" y="436" class="b2" fill="#2A6A48">48% done</text>
  <rect x="136" y="418" width="112" height="28" rx="14" fill="#E7EFF5"/>
  <text x="169" y="436" class="b2">Resume</text>

  <g filter="url(#drop)">
    <rect x="22" y="478" width="346" height="132" rx="22" fill="url(#card)"/>
  </g>
  <text x="40" y="510" class="h3">Airport Dialog Drill</text>
  <text x="40" y="530" class="b1">Last active yesterday</text>
  <rect x="40" y="546" width="286" height="10" rx="5" fill="#D9E7ED"/>
  <rect x="40" y="546" width="250" height="10" rx="5" fill="#0E6A78"/>
  <text x="333" y="554" class="b2">41/48</text>
  <rect x="40" y="566" width="88" height="28" rx="14" fill="#E7F3EA"/>
  <text x="58" y="584" class="b2" fill="#2A6A48">85% done</text>
  <rect x="136" y="566" width="112" height="28" rx="14" fill="#E7EFF5"/>
  <text x="169" y="584" class="b2">Resume</text>

  <g filter="url(#drop)">
    <rect x="22" y="626" width="346" height="132" rx="22" fill="url(#card)"/>
  </g>
  <text x="40" y="658" class="h3">Daily News Clip</text>
  <text x="40" y="678" class="b1">Transcribed today</text>
  <rect x="40" y="694" width="286" height="10" rx="5" fill="#D9E7ED"/>
  <rect x="40" y="694" width="24" height="10" rx="5" fill="#0E6A78"/>
  <text x="333" y="702" class="b2">1/26</text>
  <rect x="40" y="714" width="94" height="28" rx="14" fill="#F3EDF9"/>
  <text x="58" y="732" class="b2" fill="#70578D">Just started</text>
  <rect x="142" y="714" width="106" height="28" rx="14" fill="#E7EFF5"/>
  <text x="171" y="732" class="b2">Continue</text>

  <rect x="104" y="768" width="182" height="56" rx="28" fill="url(#primary)"/>
  <text x="146" y="802" class="w">New Session</text>
</svg>
